<?xml version="1.0" encoding="UTF-8"?>
<svg xmlns="http://www.w3.org/2000/svg" xmlns:xlink="http://www.w3.org/1999/xlink" width="3000" height="2000" viewBox="0 0 3000 2000">
<defs>
<clipPath id="clip-0">
<path clip-rule="nonzero" d="M 584 1349 L 744 1349 L 744 1649 L 584 1649 Z M 584 1349 "/>
</clipPath>
<clipPath id="clip-1">
<path clip-rule="evenodd" d="M 615.875 1648.710938 L 712.21875 1648.710938 C 783.410156 1530.269531 715.261719 1470.351562 696.722656 1429.679688 C 682.511719 1398.519531 684.714844 1378.210938 697.023438 1349.871094 C 662.191406 1349.871094 665.902344 1349.871094 631.070312 1349.871094 C 643.378906 1378.210938 645.578125 1398.511719 631.371094 1429.679688 C 612.828125 1470.351562 544.683594 1530.269531 615.875 1648.710938 "/>
</clipPath>
<linearGradient id="linear-pattern-0" gradientUnits="userSpaceOnUse" x1="-0.246767" y1="0" x2="1.246773" y2="0" gradientTransform="matrix(159.839, 0, 0, 159.839, 584.126, 1499.29)">
<stop offset="0" stop-color="rgb(79.998779%, 79.998779%, 79.998779%)" stop-opacity="1"/>
<stop offset="0.25" stop-color="rgb(79.998779%, 79.998779%, 79.998779%)" stop-opacity="1"/>
<stop offset="0.3125" stop-color="rgb(79.827881%, 79.824829%, 79.824829%)" stop-opacity="1"/>
<stop offset="0.320312" stop-color="rgb(79.510498%, 79.499817%, 79.499817%)" stop-opacity="1"/>
<stop offset="0.328125" stop-color="rgb(79.216003%, 79.200745%, 79.200745%)" stop-opacity="1"/>
<stop offset="0.335938" stop-color="rgb(78.921509%, 78.900146%, 78.900146%)" stop-opacity="1"/>
<stop offset="0.34375" stop-color="rgb(78.627014%, 78.601074%, 78.601074%)" stop-opacity="1"/>
<stop offset="0.351562" stop-color="rgb(78.334045%, 78.300476%, 78.300476%)" stop-opacity="1"/>
<stop offset="0.359375" stop-color="rgb(78.039551%, 78.001404%, 78.001404%)" stop-opacity="1"/>
<stop offset="0.367188" stop-color="rgb(77.745056%, 77.700806%, 77.700806%)" stop-opacity="1"/>
<stop offset="0.375" stop-color="rgb(77.452087%, 77.401733%, 77.401733%)" stop-opacity="1"/>
<stop offset="0.382812" stop-color="rgb(77.157593%, 77.101135%, 77.101135%)" stop-opacity="1"/>
<stop offset="0.390625" stop-color="rgb(76.863098%, 76.802063%, 76.802063%)" stop-opacity="1"/>
<stop offset="0.398438" stop-color="rgb(76.568604%, 76.501465%, 76.501465%)" stop-opacity="1"/>
<stop offset="0.40625" stop-color="rgb(76.275635%, 76.202393%, 76.202393%)" stop-opacity="1"/>
<stop offset="0.414062" stop-color="rgb(75.98114%, 75.901794%, 75.901794%)" stop-opacity="1"/>
<stop offset="0.421875" stop-color="rgb(75.686646%, 75.602722%, 75.602722%)" stop-opacity="1"/>
<stop offset="0.429688" stop-color="rgb(75.393677%, 75.302124%, 75.302124%)" stop-opacity="1"/>
<stop offset="0.4375" stop-color="rgb(75.099182%, 75.003052%, 75.003052%)" stop-opacity="1"/>
<stop offset="0.445312" stop-color="rgb(74.804688%, 74.703979%, 74.703979%)" stop-opacity="1"/>
<stop offset="0.453125" stop-color="rgb(74.510193%, 74.403381%, 74.403381%)" stop-opacity="1"/>
<stop offset="0.460938" stop-color="rgb(74.217224%, 74.104309%, 74.104309%)" stop-opacity="1"/>
<stop offset="0.46875" stop-color="rgb(73.922729%, 73.803711%, 73.803711%)" stop-opacity="1"/>
<stop offset="0.476562" stop-color="rgb(73.628235%, 73.504639%, 73.504639%)" stop-opacity="1"/>
<stop offset="0.484375" stop-color="rgb(73.335266%, 73.204041%, 73.204041%)" stop-opacity="1"/>
<stop offset="0.492188" stop-color="rgb(73.040771%, 72.904968%, 72.904968%)" stop-opacity="1"/>
<stop offset="0.5" stop-color="rgb(72.746277%, 72.60437%, 72.60437%)" stop-opacity="1"/>
<stop offset="0.507812" stop-color="rgb(72.451782%, 72.305298%, 72.305298%)" stop-opacity="1"/>
<stop offset="0.515625" stop-color="rgb(72.158813%, 72.0047%, 72.0047%)" stop-opacity="1"/>
<stop offset="0.523438" stop-color="rgb(71.864319%, 71.705627%, 71.705627%)" stop-opacity="1"/>
<stop offset="0.53125" stop-color="rgb(71.569824%, 71.405029%, 71.405029%)" stop-opacity="1"/>
<stop offset="0.539062" stop-color="rgb(71.276855%, 71.105957%, 71.105957%)" stop-opacity="1"/>
<stop offset="0.546875" stop-color="rgb(70.982361%, 70.805359%, 70.805359%)" stop-opacity="1"/>
<stop offset="0.554688" stop-color="rgb(70.687866%, 70.506287%, 70.506287%)" stop-opacity="1"/>
<stop offset="0.5625" stop-color="rgb(70.393372%, 70.205688%, 70.205688%)" stop-opacity="1"/>
<stop offset="0.570312" stop-color="rgb(70.100403%, 69.906616%, 69.906616%)" stop-opacity="1"/>
<stop offset="0.578125" stop-color="rgb(69.805908%, 69.606018%, 69.606018%)" stop-opacity="1"/>
<stop offset="0.585938" stop-color="rgb(69.511414%, 69.306946%, 69.306946%)" stop-opacity="1"/>
<stop offset="0.59375" stop-color="rgb(69.218445%, 69.006348%, 69.006348%)" stop-opacity="1"/>
<stop offset="0.601562" stop-color="rgb(68.92395%, 68.707275%, 68.707275%)" stop-opacity="1"/>
<stop offset="0.609375" stop-color="rgb(68.629456%, 68.406677%, 68.406677%)" stop-opacity="1"/>
<stop offset="0.617188" stop-color="rgb(68.334961%, 68.107605%, 68.107605%)" stop-opacity="1"/>
<stop offset="0.625" stop-color="rgb(68.041992%, 67.807007%, 67.807007%)" stop-opacity="1"/>
<stop offset="0.632812" stop-color="rgb(67.747498%, 67.507935%, 67.507935%)" stop-opacity="1"/>
<stop offset="0.640625" stop-color="rgb(67.453003%, 67.207336%, 67.207336%)" stop-opacity="1"/>
<stop offset="0.648438" stop-color="rgb(67.160034%, 66.908264%, 66.908264%)" stop-opacity="1"/>
<stop offset="0.65625" stop-color="rgb(66.86554%, 66.607666%, 66.607666%)" stop-opacity="1"/>
<stop offset="0.664062" stop-color="rgb(66.571045%, 66.308594%, 66.308594%)" stop-opacity="1"/>
<stop offset="0.671875" stop-color="rgb(66.27655%, 66.007996%, 66.007996%)" stop-opacity="1"/>
<stop offset="0.679688" stop-color="rgb(65.983582%, 65.708923%, 65.708923%)" stop-opacity="1"/>
<stop offset="0.6875" stop-color="rgb(65.689087%, 65.408325%, 65.408325%)" stop-opacity="1"/>
<stop offset="0.695312" stop-color="rgb(65.394592%, 65.109253%, 65.109253%)" stop-opacity="1"/>
<stop offset="0.703125" stop-color="rgb(65.101624%, 64.808655%, 64.808655%)" stop-opacity="1"/>
<stop offset="0.710938" stop-color="rgb(64.807129%, 64.509583%, 64.509583%)" stop-opacity="1"/>
<stop offset="0.71875" stop-color="rgb(64.512634%, 64.208984%, 64.208984%)" stop-opacity="1"/>
<stop offset="0.726562" stop-color="rgb(64.21814%, 63.909912%, 63.909912%)" stop-opacity="1"/>
<stop offset="0.734375" stop-color="rgb(63.925171%, 63.609314%, 63.609314%)" stop-opacity="1"/>
<stop offset="0.742188" stop-color="rgb(63.630676%, 63.310242%, 63.310242%)" stop-opacity="1"/>
<stop offset="0.75" stop-color="rgb(63.336182%, 63.009644%, 63.009644%)" stop-opacity="1"/>
<stop offset="0.757812" stop-color="rgb(63.043213%, 62.710571%, 62.710571%)" stop-opacity="1"/>
<stop offset="0.765625" stop-color="rgb(62.748718%, 62.409973%, 62.409973%)" stop-opacity="1"/>
<stop offset="0.773438" stop-color="rgb(62.454224%, 62.110901%, 62.110901%)" stop-opacity="1"/>
<stop offset="0.78125" stop-color="rgb(62.159729%, 61.810303%, 61.810303%)" stop-opacity="1"/>
<stop offset="0.789062" stop-color="rgb(61.86676%, 61.51123%, 61.51123%)" stop-opacity="1"/>
<stop offset="0.796875" stop-color="rgb(61.572266%, 61.210632%, 61.210632%)" stop-opacity="1"/>
<stop offset="0.804688" stop-color="rgb(61.277771%, 60.91156%, 60.91156%)" stop-opacity="1"/>
<stop offset="0.8125" stop-color="rgb(60.984802%, 60.610962%, 60.610962%)" stop-opacity="1"/>
<stop offset="0.820312" stop-color="rgb(60.690308%, 60.31189%, 60.31189%)" stop-opacity="1"/>
<stop offset="0.828125" stop-color="rgb(60.395813%, 60.011292%, 60.011292%)" stop-opacity="1"/>
<stop offset="0.84375" stop-color="rgb(60.124207%, 59.733582%, 59.733582%)" stop-opacity="1"/>
<stop offset="0.875" stop-color="rgb(59.999084%, 59.606934%, 59.606934%)" stop-opacity="1"/>
<stop offset="1" stop-color="rgb(59.999084%, 59.606934%, 59.606934%)" stop-opacity="1"/>
</linearGradient>
</defs>
<rect x="-300" y="-200" width="3600" height="2400" fill="rgb(100%, 100%, 100%)" fill-opacity="1"/>
<path fill-rule="nonzero" fill="rgb(96.875%, 97.264099%, 97.65625%)" fill-opacity="1" d="M 2329.21875 1650.859375 L 829.71875 1650.859375 C 776.683594 1612.839844 668.6875 1524.488281 607.113281 1374.769531 C 583.648438 1317.71875 514.457031 1149.480469 591.457031 984.230469 C 650.949219 856.550781 767.328125 795.898438 865.476562 744.75 C 991.378906 679.128906 1085.808594 664.269531 1169.140625 654.140625 C 1172.53125 654.859375 1176.050781 655.238281 1179.648438 655.238281 L 1180.828125 655.238281 C 1188.808594 655.238281 1196.359375 653.378906 1203.011719 650.101562 C 1286.269531 640.078125 1360.71875 628.328125 1448.75 564.210938 C 1609.980469 446.769531 1572.621094 331.511719 1711.019531 284.199219 C 1740.550781 274.109375 1770.679688 269.640625 1801.140625 269.640625 C 1925.628906 269.640625 2055.988281 344.109375 2176.859375 413.148438 C 2292.761719 479.359375 2432.878906 559.398438 2521.339844 726.328125 C 2613.03125 899.359375 2594.601562 1062.691406 2583.96875 1146.339844 C 2550.898438 1406.621094 2398.121094 1581.210938 2329.21875 1650.859375 M 1757.429688 1606.21875 C 1717.03125 1606.21875 1684.289062 1611.628906 1684.289062 1618.308594 C 1684.289062 1624.980469 1717.03125 1630.390625 1757.429688 1630.390625 C 1797.820312 1630.390625 1830.570312 1620 1830.570312 1613.320312 C 1830.570312 1606.648438 1797.820312 1606.21875 1757.429688 1606.21875 M 1885.980469 1605.21875 C 1866.121094 1605.21875 1850.03125 1608.078125 1850.03125 1611.621094 C 1850.03125 1615.160156 1866.121094 1618.03125 1885.980469 1618.03125 C 1905.828125 1618.03125 1921.929688 1612.519531 1921.929688 1608.980469 C 1921.929688 1605.441406 1905.828125 1605.21875 1885.980469 1605.21875 M 1838.359375 616.871094 C 1846.351562 622.371094 1855.25 625.289062 1860.839844 627.128906 C 1866.601562 629.019531 1873.550781 631.238281 1882.351562 631.238281 C 1883.851562 631.238281 1885.390625 631.179688 1887 631.039062 C 1896.019531 630.25 1902.550781 627.410156 1908.460938 624.789062 C 1917.398438 620.820312 1927.851562 616.179688 1935 607.230469 C 1942.339844 598.039062 1943.328125 587.808594 1943.28125 571.121094 C 1944.351562 570.75 1945.511719 570.289062 1946.789062 569.570312 C 1951.851562 566.71875 1954.519531 562.558594 1955.691406 560.359375 C 1957.851562 556.300781 1958.289062 552.519531 1958.378906 550.460938 C 1958.691406 543.359375 1955.648438 538.261719 1954.148438 535.839844 C 1951.730469 531.910156 1948.289062 526.328125 1943.179688 526.328125 C 1943.140625 526.328125 1943.101562 526.328125 1943.050781 526.328125 C 1942.101562 526.339844 1941.238281 526.578125 1940.429688 526.898438 C 1939.308594 522.410156 1937.75 518.078125 1935.390625 513.558594 C 1925.28125 494.101562 1908.640625 484.359375 1901.441406 480.769531 C 1889.78125 474.960938 1878 472.898438 1867.148438 472.898438 C 1842.589844 472.898438 1822.769531 483.460938 1819.859375 485.058594 L 1813.621094 493.648438 C 1813.949219 501.488281 1814.621094 516.578125 1815.671875 533.191406 C 1815.640625 533.199219 1815.621094 533.210938 1815.589844 533.21875 C 1812.640625 534.199219 1816.648438 542.71875 1811.300781 559.929688 C 1808.101562 570.230469 1804.910156 572.789062 1803.179688 583.511719 C 1802.261719 589.238281 1801.339844 595.378906 1803.960938 602.441406 C 1804.921875 605.058594 1807.46875 611.648438 1814.390625 615.96875 C 1818.269531 618.390625 1822.898438 619.710938 1827.511719 619.710938 C 1830.570312 619.710938 1833.609375 619.128906 1836.421875 617.898438 C 1836.421875 617.898438 1837.210938 617.550781 1838.359375 616.871094 M 2117.960938 429.671875 C 2095.230469 429.671875 2074.621094 438.898438 2059.730469 453.789062 C 2044.839844 468.679688 2035.609375 489.300781 2035.621094 512.019531 C 2035.609375 534.75 2044.839844 555.371094 2059.730469 570.25 C 2074.621094 585.148438 2095.238281 594.378906 2117.96875 594.371094 C 2117.96875 594.371094 2117.96875 594.371094 2117.980469 594.371094 C 2140.699219 594.371094 2161.308594 585.148438 2176.199219 570.25 C 2191.089844 555.371094 2200.320312 534.75 2200.320312 512.019531 C 2200.320312 489.300781 2191.089844 468.679688 2176.199219 453.789062 C 2161.308594 438.890625 2140.691406 429.671875 2117.96875 429.671875 C 2117.960938 429.671875 2117.960938 429.671875 2117.960938 429.671875 M 2117.96875 584.628906 C 2097.898438 584.628906 2079.78125 576.511719 2066.621094 563.371094 C 2053.46875 550.210938 2045.359375 532.089844 2045.351562 512.019531 C 2045.359375 491.960938 2053.46875 473.828125 2066.621094 460.679688 C 2079.78125 447.53125 2097.898438 439.410156 2117.96875 439.410156 C 2138.03125 439.410156 2156.160156 447.53125 2169.308594 460.679688 C 2182.460938 473.828125 2190.578125 491.960938 2190.578125 512.019531 C 2190.578125 532.089844 2182.460938 550.210938 2169.308594 563.371094 C 2156.160156 576.511719 2138.03125 584.628906 2117.96875 584.628906 M 2122.339844 521.558594 L 2122.339844 523.160156 L 2128.589844 523.160156 L 2128.589844 521.558594 L 2131.660156 521.558594 L 2131.660156 515.308594 L 2128.589844 515.308594 L 2128.589844 459.769531 L 2122.339844 459.769531 L 2122.339844 515.308594 L 2073.589844 515.308594 L 2073.589844 521.558594 L 2122.339844 521.558594 "/>
<path fill-rule="nonzero" fill="rgb(9.423828%, 18.431091%, 19.993591%)" fill-opacity="1" d="M 2458.25 1648.359375 C 2440.949219 1648.359375 2423.648438 1648.359375 2406.351562 1648.359375 C 2359.699219 1648.359375 2313.039062 1648.359375 2266.378906 1648.359375 C 2197.210938 1648.359375 2128.039062 1648.359375 2058.871094 1648.359375 C 1974.480469 1648.359375 1890.078125 1648.359375 1805.691406 1648.359375 C 1713.578125 1648.359375 1621.46875 1648.359375 1529.359375 1648.359375 C 1435.75 1648.359375 1342.140625 1648.359375 1248.53125 1648.359375 C 1161.839844 1648.359375 1075.148438 1648.359375 988.464844 1648.359375 C 914.945312 1648.359375 841.425781 1648.359375 767.90625 1648.359375 C 715.050781 1648.359375 662.191406 1648.359375 609.335938 1648.359375 C 584.355469 1648.359375 559.359375 1648.070312 534.382812 1648.359375 C 533.289062 1648.371094 532.199219 1648.359375 531.105469 1648.359375 C 527.890625 1648.359375 527.882812 1653.359375 531.105469 1653.359375 C 548.40625 1653.359375 565.703125 1653.359375 583.003906 1653.359375 C 629.660156 1653.359375 676.316406 1653.359375 722.972656 1653.359375 C 792.144531 1653.359375 861.3125 1653.359375 930.484375 1653.359375 C 1014.878906 1653.359375 1099.269531 1653.359375 1183.660156 1653.359375 C 1275.769531 1653.359375 1367.878906 1653.359375 1460 1653.359375 C 1553.609375 1653.359375 1647.21875 1653.359375 1740.828125 1653.359375 C 1827.511719 1653.359375 1914.199219 1653.359375 2000.890625 1653.359375 C 2074.410156 1653.359375 2147.929688 1653.359375 2221.449219 1653.359375 C 2274.308594 1653.359375 2327.160156 1653.359375 2380.019531 1653.359375 C 2405 1653.359375 2430 1653.648438 2454.96875 1653.359375 C 2456.058594 1653.339844 2457.160156 1653.359375 2458.25 1653.359375 C 2461.46875 1653.359375 2461.46875 1648.359375 2458.25 1648.359375 "/>
<path fill-rule="nonzero" fill="rgb(96.875%, 97.264099%, 97.65625%)" fill-opacity="1" d="M 700.703125 824.191406 C 699.878906 824.191406 699.152344 823.960938 698.511719 823.46875 C 682.996094 811.570312 731.496094 659.699219 828.359375 648.519531 C 832.304688 648.070312 836.265625 647.851562 840.226562 647.851562 C 889.59375 647.851562 938.316406 681.269531 935.78125 700.238281 C 933.457031 717.640625 889.34375 712.871094 821.570312 742.96875 C 743.039062 777.839844 712.289062 824.199219 700.703125 824.191406 "/>
<path fill-rule="nonzero" fill="rgb(64.646912%, 65.039062%, 65.039062%)" fill-opacity="1" d="M 2117.980469 594.371094 C 2117.96875 594.371094 2117.96875 594.371094 2117.96875 594.371094 C 2095.238281 594.378906 2074.621094 585.148438 2059.730469 570.25 C 2044.839844 555.371094 2035.609375 534.75 2035.621094 512.019531 C 2035.609375 489.300781 2044.839844 468.679688 2059.730469 453.789062 C 2074.621094 438.898438 2095.230469 429.671875 2117.960938 429.671875 C 2117.960938 429.671875 2117.960938 429.671875 2117.96875 429.671875 C 2140.691406 429.671875 2161.308594 438.890625 2176.199219 453.789062 C 2191.089844 468.679688 2200.320312 489.300781 2200.320312 512.019531 C 2200.320312 534.75 2191.089844 555.371094 2176.199219 570.25 C 2161.308594 585.148438 2140.699219 594.371094 2117.980469 594.371094 M 2117.96875 439.410156 C 2097.898438 439.410156 2079.78125 447.53125 2066.621094 460.679688 C 2053.46875 473.828125 2045.359375 491.960938 2045.351562 512.019531 C 2045.359375 532.089844 2053.46875 550.210938 2066.621094 563.371094 C 2079.78125 576.511719 2097.898438 584.628906 2117.96875 584.628906 C 2138.03125 584.628906 2156.160156 576.511719 2169.308594 563.371094 C 2182.460938 550.210938 2190.578125 532.089844 2190.578125 512.019531 C 2190.578125 491.960938 2182.460938 473.828125 2169.308594 460.679688 C 2156.160156 447.53125 2138.03125 439.410156 2117.96875 439.410156 M 2200.320312 512.019531 L 2200.320312 512.019531 "/>
<path fill-rule="nonzero" fill="rgb(64.646912%, 65.039062%, 65.039062%)" fill-opacity="1" d="M 2131.660156 521.558594 L 2128.589844 521.558594 L 2128.589844 515.308594 L 2131.660156 515.308594 L 2131.660156 521.558594 M 2122.339844 521.558594 L 2073.589844 521.558594 L 2073.589844 515.308594 L 2122.339844 515.308594 L 2122.339844 521.558594 "/>
<path fill-rule="nonzero" fill="rgb(64.646912%, 65.039062%, 65.039062%)" fill-opacity="1" d="M 2128.589844 523.160156 L 2122.339844 523.160156 L 2122.339844 521.558594 L 2128.589844 521.558594 L 2128.589844 523.160156 M 2128.589844 515.308594 L 2122.339844 515.308594 L 2122.339844 459.769531 L 2128.589844 459.769531 L 2128.589844 515.308594 "/>
<path fill-rule="nonzero" fill="rgb(58.396912%, 58.396912%, 58.396912%)" fill-opacity="1" d="M 2122.339844 521.558594 L 2128.589844 521.558594 L 2128.589844 515.304688 L 2122.339844 515.304688 Z M 2122.339844 521.558594 "/>
<path fill-rule="nonzero" fill="rgb(52.539062%, 52.539062%, 52.539062%)" fill-opacity="1" d="M 2028.660156 1604.199219 L 1987.101562 1604.199219 L 1987.101562 1168.421875 L 2028.660156 1168.421875 L 2028.660156 1604.199219 "/>
<path fill-rule="nonzero" fill="rgb(95.701599%, 74.804688%, 14.501953%)" fill-opacity="1" d="M 2089.539062 789.089844 C 2102.671875 823.800781 2187.828125 1056.328125 2084.898438 1153.898438 C 2073.839844 1164.378906 2060.171875 1172.449219 2060.171875 1172.449219 C 2013.46875 1202.039062 1966.738281 1204.039062 1938.050781 1204.910156 C 1889.179688 1206.390625 1857.199219 1207.371094 1828.300781 1184.808594 C 1828.300781 1184.808594 1796.839844 1160.410156 1788.109375 1118.339844 C 1772.78125 1044.390625 1889.078125 937.53125 2067.898438 849.378906 L 2089.539062 789.089844 "/>
<path fill-rule="nonzero" fill="rgb(50.976562%, 51.756287%, 51.367188%)" fill-opacity="1" d="M 1896.191406 1648.398438 L 2144.28125 1648.398438 C 2144.28125 1648.398438 2038.03125 1585.730469 2005.199219 1590.121094 C 1972.371094 1594.511719 1896.191406 1648.398438 1896.191406 1648.398438 "/>
<path fill-rule="nonzero" fill="rgb(95.3125%, 65.429688%, 13.330078%)" fill-opacity="1" d="M 1898.589844 1152.828125 C 1904.109375 1160.808594 1914.398438 1162.179688 1924.589844 1163.539062 C 1979.109375 1170.808594 2038.78125 1119.101562 2060.730469 1061.058594 C 2073.359375 1027.648438 2078.109375 979.960938 2060.730469 970.808594 C 2055.769531 968.199219 2045.089844 966.660156 2008.71875 995.28125 C 1951.191406 1040.550781 1877.96875 1123.050781 1898.589844 1152.828125 "/>
<path fill-rule="nonzero" fill="rgb(90.234375%, 90.234375%, 89.84375%)" fill-opacity="1" d="M 1757.429688 1630.390625 C 1717.03125 1630.390625 1684.289062 1624.980469 1684.289062 1618.308594 C 1684.289062 1611.628906 1717.03125 1606.21875 1757.429688 1606.21875 C 1797.820312 1606.21875 1830.570312 1606.648438 1830.570312 1613.320312 C 1830.570312 1620 1797.820312 1630.390625 1757.429688 1630.390625 "/>
<path fill-rule="nonzero" fill="rgb(90.234375%, 90.234375%, 89.84375%)" fill-opacity="1" d="M 1885.980469 1618.03125 C 1866.121094 1618.03125 1850.03125 1615.160156 1850.03125 1611.621094 C 1850.03125 1608.078125 1866.121094 1605.21875 1885.980469 1605.21875 C 1905.828125 1605.21875 1921.929688 1605.441406 1921.929688 1608.980469 C 1921.929688 1612.519531 1905.828125 1618.03125 1885.980469 1618.03125 "/>
<path fill-rule="nonzero" fill="rgb(97.65625%, 74.414062%, 55.271912%)" fill-opacity="1" d="M 1951.960938 635.550781 C 1951.960938 635.550781 1943.210938 617.949219 1945.78125 591.96875 C 1948.359375 565.988281 1878.28125 624.210938 1878.28125 624.210938 L 1878.28125 663.890625 L 1898.230469 675.21875 L 1951.960938 644.820312 L 1951.960938 635.550781 "/>
<path fill-rule="nonzero" fill="rgb(14.892578%, 12.547302%, 10.984802%)" fill-opacity="1" d="M 1934.960938 617.511719 C 1932.46875 615.621094 1934.050781 610.421875 1936.890625 598.191406 C 1941.988281 576.300781 1940.710938 576.671875 1943.28125 571.121094 C 1945.421875 566.511719 1952.890625 550.328125 1962.011719 551.039062 C 1968.671875 551.558594 1973.53125 560.878906 1975.148438 567.269531 C 1979.839844 585.800781 1963.039062 602.578125 1959.691406 605.921875 C 1954.359375 611.238281 1949.589844 613.5 1946.28125 615.03125 C 1941.449219 617.261719 1937.199219 619.210938 1934.960938 617.511719 "/>
<path fill-rule="nonzero" fill="rgb(22.75238%, 19.604492%, 16.868591%)" fill-opacity="1" d="M 1815.589844 533.21875 C 1812.640625 534.199219 1816.648438 542.71875 1811.300781 559.929688 C 1808.101562 570.230469 1804.910156 572.789062 1803.179688 583.511719 C 1802.261719 589.238281 1801.339844 595.378906 1803.960938 602.441406 C 1804.921875 605.058594 1807.46875 611.648438 1814.390625 615.96875 C 1820.839844 619.988281 1829.378906 620.988281 1836.421875 617.898438 C 1836.421875 617.898438 1841.03125 615.871094 1844.148438 612.101562 C 1858.320312 594.949219 1823.78125 530.488281 1815.589844 533.21875 "/>
<path fill-rule="nonzero" fill="rgb(97.65625%, 74.414062%, 55.271912%)" fill-opacity="1" d="M 1954.148438 535.839844 C 1951.710938 531.878906 1948.230469 526.230469 1943.050781 526.328125 C 1942.101562 526.339844 1941.238281 526.578125 1940.429688 526.898438 C 1939.308594 522.410156 1937.75 518.078125 1935.390625 513.558594 C 1925.28125 494.101562 1908.640625 484.359375 1901.441406 480.769531 C 1863.410156 461.820312 1824.058594 482.738281 1819.859375 485.058594 L 1813.621094 493.648438 C 1814.359375 511.351562 1816.859375 565.96875 1821.421875 591.609375 C 1821.730469 593.359375 1822.351562 596.640625 1824.160156 600.589844 C 1831.941406 617.628906 1851.25 623.980469 1860.839844 627.128906 C 1867.570312 629.339844 1875.941406 632 1887 631.039062 C 1896.019531 630.25 1902.550781 627.410156 1908.460938 624.789062 C 1917.398438 620.820312 1927.851562 616.179688 1935 607.230469 C 1942.339844 598.039062 1943.328125 587.808594 1943.28125 571.121094 C 1944.351562 570.75 1945.511719 570.289062 1946.789062 569.570312 C 1951.851562 566.71875 1954.519531 562.558594 1955.691406 560.359375 C 1957.851562 556.300781 1958.289062 552.519531 1958.378906 550.460938 C 1958.691406 543.359375 1955.648438 538.261719 1954.148438 535.839844 "/>
<path fill-rule="nonzero" fill="rgb(13.719177%, 12.156677%, 12.547302%)" fill-opacity="1" d="M 1906.761719 548.730469 C 1906.761719 553.441406 1902.949219 557.261719 1898.230469 557.261719 C 1893.519531 557.261719 1889.699219 553.441406 1889.699219 548.730469 C 1889.699219 544.011719 1893.519531 540.191406 1898.230469 540.191406 C 1902.949219 540.191406 1906.761719 544.011719 1906.761719 548.730469 "/>
<path fill-rule="nonzero" fill="rgb(13.719177%, 12.156677%, 12.547302%)" fill-opacity="1" d="M 1913.058594 529.769531 C 1908.941406 526.371094 1903.820312 524.429688 1898.441406 524.621094 C 1894.53125 524.75 1890.660156 525.898438 1887.25 527.808594 C 1885.449219 528.820312 1887.070312 531.601562 1888.878906 530.578125 C 1895.820312 526.691406 1904.519531 526.878906 1910.789062 532.039062 C 1912.371094 533.351562 1914.660156 531.089844 1913.058594 529.769531 "/>
<path fill-rule="nonzero" fill="rgb(13.719177%, 12.156677%, 12.547302%)" fill-opacity="1" d="M 1847.058594 544.808594 C 1847.058594 549.519531 1843.238281 553.339844 1838.53125 553.339844 C 1833.820312 553.339844 1830 549.519531 1830 544.808594 C 1830 540.101562 1833.820312 536.28125 1838.53125 536.28125 C 1843.238281 536.28125 1847.058594 540.101562 1847.058594 544.808594 "/>
<path fill-rule="nonzero" fill="rgb(13.719177%, 12.156677%, 12.547302%)" fill-opacity="1" d="M 1853.351562 527.421875 C 1849.230469 524.03125 1844.109375 522.078125 1838.730469 522.269531 C 1834.828125 522.410156 1830.960938 523.550781 1827.550781 525.460938 C 1825.75 526.46875 1827.359375 529.25 1829.171875 528.238281 C 1836.109375 524.339844 1844.808594 524.53125 1851.078125 529.699219 C 1852.671875 531 1854.949219 528.738281 1853.351562 527.421875 "/>
<path fill-rule="nonzero" fill="rgb(13.719177%, 12.156677%, 12.547302%)" fill-opacity="1" d="M 1867.460938 572.539062 C 1866.839844 572.539062 1866.210938 572.539062 1865.589844 572.539062 C 1864.75 572.539062 1863.710938 572.710938 1862.890625 572.539062 L 1862.609375 572.539062 L 1862.148438 571.890625 C 1861.429688 571.058594 1861.378906 570.351562 1861.449219 569.308594 C 1861.539062 567.78125 1861.851562 566.28125 1862.238281 564.800781 C 1862.960938 562.140625 1864.011719 559.589844 1865.039062 557.039062 C 1865.378906 556.199219 1865.75 555.359375 1865.988281 554.488281 C 1866.101562 554.089844 1866.261719 553.539062 1866.011719 553.160156 C 1865.71875 552.730469 1865.019531 553.128906 1865.308594 553.570312 C 1865.460938 553.789062 1865.171875 554.421875 1865.101562 554.648438 C 1864.859375 555.390625 1864.558594 556.109375 1864.269531 556.820312 C 1863.441406 558.859375 1862.609375 560.890625 1861.941406 562.980469 C 1861.238281 565.191406 1860.679688 567.5 1860.621094 569.839844 C 1860.578125 571.171875 1861.03125 571.878906 1861.929688 572.839844 C 1862.410156 573.359375 1862.550781 573.351562 1863.191406 573.351562 C 1864.621094 573.351562 1866.039062 573.351562 1867.460938 573.351562 C 1867.980469 573.351562 1867.980469 572.539062 1867.460938 572.539062 "/>
<path fill-rule="nonzero" fill="rgb(96.875%, 65.039062%, 50.584412%)" fill-opacity="1" d="M 1916.328125 587.351562 C 1908.378906 587.351562 1901.929688 580.898438 1901.929688 572.941406 C 1901.929688 564.980469 1908.378906 558.53125 1916.328125 558.53125 C 1924.289062 558.53125 1930.738281 564.980469 1930.738281 572.941406 C 1930.738281 580.898438 1924.289062 587.351562 1916.328125 587.351562 "/>
<path fill-rule="nonzero" fill="rgb(74.414062%, 11.767578%, 17.651367%)" fill-opacity="1" d="M 1866.019531 592.949219 C 1867.410156 613.308594 1901.53125 608.070312 1894.910156 587.351562 "/>
<path fill-rule="nonzero" fill="rgb(74.414062%, 11.767578%, 17.651367%)" fill-opacity="1" d="M 1865.191406 593.011719 C 1865.5 597.640625 1867.480469 601.109375 1870.300781 603.359375 C 1873.121094 605.609375 1876.738281 606.648438 1880.371094 606.648438 C 1884.351562 606.648438 1888.359375 605.398438 1891.429688 603 C 1894.488281 600.609375 1896.589844 597 1896.589844 592.46875 C 1896.589844 590.800781 1896.300781 589 1895.699219 587.101562 L 1894.121094 587.601562 C 1894.679688 589.359375 1894.929688 590.980469 1894.929688 592.46875 C 1894.921875 596.480469 1893.128906 599.550781 1890.410156 601.699219 C 1887.679688 603.839844 1884 605 1880.371094 604.988281 C 1877.050781 604.988281 1873.800781 604.03125 1871.328125 602.058594 C 1868.871094 600.089844 1867.140625 597.121094 1866.839844 592.898438 L 1865.191406 593.011719 "/>
<path fill-rule="nonzero" fill="rgb(94.921875%, 43.920898%, 39.208984%)" fill-opacity="1" d="M 1894.480469 597.570312 C 1895.179688 601.179688 1890.269531 605.171875 1883.511719 606.480469 C 1876.761719 607.789062 1870.71875 605.921875 1870.019531 602.320312 C 1869.320312 598.710938 1874.230469 594.71875 1880.980469 593.410156 C 1887.738281 592.101562 1893.78125 593.96875 1894.480469 597.570312 "/>
<path fill-rule="nonzero" fill="rgb(44.700623%, 27.050781%, 23.535156%)" fill-opacity="1" d="M 1821.351562 591.179688 C 1821.300781 591.160156 1821.25 591.140625 1821.199219 591.128906 C 1820.011719 584.171875 1818.960938 575.210938 1818.050781 565.488281 C 1818.078125 565.46875 1818.109375 565.449219 1818.140625 565.429688 C 1819.058594 575.21875 1820.128906 584.21875 1821.351562 591.179688 "/>
<path fill-rule="nonzero" fill="rgb(96.875%, 65.039062%, 50.584412%)" fill-opacity="1" d="M 1825.878906 591.96875 C 1824.289062 591.96875 1822.78125 591.660156 1821.351562 591.179688 C 1820.128906 584.21875 1819.058594 575.21875 1818.140625 565.429688 C 1820.378906 564 1823.03125 563.148438 1825.878906 563.148438 C 1833.839844 563.148438 1840.289062 569.601562 1840.289062 577.558594 C 1840.289062 585.519531 1833.839844 591.96875 1825.878906 591.96875 "/>
<path fill-rule="nonzero" fill="rgb(22.75238%, 19.604492%, 16.868591%)" fill-opacity="1" d="M 1816.5 548.730469 C 1810.050781 532.398438 1804.019531 519.671875 1799.578125 510.851562 C 1794.351562 500.480469 1790.589844 494.058594 1792.808594 486.121094 C 1794.851562 478.800781 1800.878906 474.128906 1806.351562 469.890625 C 1811.730469 465.71875 1819.25 459.890625 1830.039062 459.070312 C 1842.308594 458.128906 1858.339844 463.691406 1858.820312 471.441406 C 1859.171875 477.140625 1851.039062 483.320312 1840.199219 486.890625 L 1815.660156 511.628906 L 1816.5 548.730469 "/>
<path fill-rule="nonzero" fill="rgb(22.75238%, 19.604492%, 16.868591%)" fill-opacity="1" d="M 1829.078125 445.929688 C 1826.328125 449.71875 1821.410156 457.738281 1821.351562 468.339844 C 1821.269531 482.390625 1829.769531 492.109375 1836.03125 499.261719 C 1840.820312 504.730469 1851.441406 516.871094 1868.488281 520.898438 C 1889.949219 525.980469 1899.660156 513.058594 1924.140625 520.128906 C 1928.300781 521.328125 1933.691406 522.941406 1939.601562 527.078125 C 1959.871094 541.300781 1961.109375 567.71875 1961.238281 571.910156 C 1961.410156 577.589844 1961.890625 593.101562 1951.960938 605.148438 C 1944.410156 614.320312 1934.648438 616.839844 1934.960938 617.511719 C 1935.421875 618.480469 1956.371094 614.679688 1973.609375 598.191406 C 1976.921875 595.011719 1989.800781 582.089844 1994.46875 561.089844 C 1999.058594 540.488281 1993.039062 524.25 1985.199219 503.121094 C 1979.019531 486.46875 1972.238281 468.171875 1954.28125 451.339844 C 1939.210938 437.210938 1924.019531 431.371094 1913.320312 427.378906 C 1895.691406 420.808594 1869.648438 411.101562 1848.398438 423.519531 C 1841.128906 427.769531 1836.46875 433.410156 1833.710938 437.429688 "/>
<path fill-rule="nonzero" fill="rgb(85.15625%, 59.568787%, 45.092773%)" fill-opacity="1" d="M 1878.28125 631.078125 C 1882.179688 630.5 1886.898438 629.460938 1892.070312 627.558594 C 1895.960938 626.128906 1899.320312 624.488281 1902.109375 622.921875 L 1878.28125 636.640625 L 1878.28125 631.078125 "/>
<path fill-rule="nonzero" fill="rgb(85.15625%, 59.568787%, 45.092773%)" fill-opacity="1" d="M 1952.050781 557.820312 C 1952.410156 556.578125 1953.46875 552.371094 1951.519531 547.640625 C 1949.339844 542.371094 1944.960938 540.140625 1943.890625 539.628906 "/>
<path fill-rule="nonzero" fill="rgb(97.65625%, 74.414062%, 55.271912%)" fill-opacity="1" d="M 1878.539062 640.699219 L 1874.289062 644.820312 L 1867.460938 660.789062 L 1878.28125 663.890625 L 1893.230469 657.699219 L 1878.539062 640.699219 "/>
<path fill-rule="nonzero" fill="rgb(100%, 100%, 100%)" fill-opacity="1" d="M 1838.949219 464.140625 C 1841.75 475.53125 1847.429688 490.070312 1860.28125 497.191406 C 1865.21875 499.929688 1869.75 500.738281 1874.511719 500.738281 C 1881.488281 500.738281 1888.960938 499 1899.039062 499 C 1903.609375 499 1908.710938 499.351562 1914.539062 500.390625 C 1923.398438 501.96875 1945.238281 505.859375 1960.179688 523.730469 C 1963.828125 528.101562 1973.550781 539.75 1973.550781 555.089844 C 1973.550781 557.289062 1973.351562 559.558594 1972.910156 561.898438 C 1969.980469 577.289062 1958.210938 586.078125 1954.890625 588.390625 L 1955.039062 588.609375 C 1958.378906 586.289062 1970.21875 577.460938 1973.171875 561.949219 C 1973.621094 559.589844 1973.820312 557.300781 1973.820312 555.089844 C 1973.820312 539.628906 1964.039062 527.929688 1960.390625 523.558594 C 1945.371094 505.601562 1923.449219 501.699219 1914.589844 500.121094 C 1908.738281 499.078125 1903.621094 498.71875 1899.039062 498.71875 C 1888.929688 498.730469 1881.449219 500.46875 1874.511719 500.46875 C 1869.78125 500.46875 1865.308594 499.660156 1860.410156 496.949219 C 1847.671875 489.898438 1842 475.441406 1839.210938 464.078125 L 1838.949219 464.140625 "/>
<path fill-rule="nonzero" fill="rgb(100%, 100%, 100%)" fill-opacity="1" d="M 1978.46875 515.078125 C 1964.191406 489.71875 1948.398438 479.398438 1936.941406 474.621094 C 1926.679688 470.328125 1917.140625 469.351562 1908.300781 467.660156 C 1899.460938 465.980469 1891.320312 463.609375 1883.828125 456.570312 C 1875.078125 448.359375 1871.609375 437.929688 1870.050781 431.121094 L 1869.78125 431.179688 C 1871.351562 438.011719 1874.839844 448.5 1883.640625 456.769531 C 1891.191406 463.859375 1899.390625 466.25 1908.25 467.929688 C 1917.101562 469.621094 1926.621094 470.601562 1936.839844 474.871094 C 1948.25 479.628906 1963.980469 489.898438 1978.238281 515.210938 L 1978.46875 515.078125 "/>
<path fill-rule="nonzero" fill="rgb(100%, 100%, 100%)" fill-opacity="1" d="M 1821.980469 475.101562 C 1820.710938 475.621094 1812.429688 479.140625 1809.191406 488.519531 C 1808.308594 491.050781 1807.988281 493.460938 1807.988281 495.648438 C 1807.988281 500.808594 1809.78125 504.660156 1810.25 505.628906 L 1810.5 505.511719 C 1810.03125 504.558594 1808.261719 500.75 1808.261719 495.648438 C 1808.261719 493.488281 1808.578125 491.109375 1809.441406 488.609375 C 1812.640625 479.351562 1820.839844 475.859375 1822.078125 475.351562 L 1821.980469 475.101562 "/>
<path fill-rule="nonzero" fill="rgb(100%, 100%, 100%)" fill-opacity="1" d="M 1815.011719 564.5 C 1814.011719 565.921875 1807.589844 575.378906 1807.589844 587.410156 C 1807.589844 590.808594 1808.109375 594.421875 1809.410156 598.109375 C 1811.960938 605.328125 1816.519531 610.03125 1819.421875 612.519531 L 1819.601562 612.320312 C 1816.71875 609.839844 1812.191406 605.179688 1809.671875 598.019531 C 1808.378906 594.359375 1807.859375 590.78125 1807.859375 587.410156 C 1807.859375 575.480469 1814.25 566.058594 1815.230469 564.660156 L 1815.011719 564.5 "/>
<path fill-rule="nonzero" fill="rgb(97.65625%, 74.414062%, 55.271912%)" fill-opacity="1" d="M 1950.519531 1465.859375 C 1950.898438 1465.511719 1951.28125 1465.03125 1951.621094 1464.421875 C 1951.378906 1464.96875 1951.089844 1465.609375 1950.761719 1466.320312 C 1939.800781 1490.398438 1885.429688 1607.980469 1875.539062 1593.910156 C 1872.398438 1589.441406 1871.171875 1585.03125 1871.28125 1579.808594 C 1871.539062 1566.769531 1880.210938 1548.691406 1888.351562 1512.070312 C 1912.941406 1472.058594 1787.460938 1229.46875 1709.511719 1086.710938 L 1714.480469 1089.121094 L 1711.75 1077.738281 L 1784.171875 1024.5 C 1797.960938 1067.308594 1814.878906 1122.011719 1827.5 1169.898438 C 1852.839844 1265.980469 1924.128906 1429.601562 1924.128906 1429.601562 C 1929.328125 1438.628906 1933.921875 1447.589844 1937.910156 1454.441406 C 1943.160156 1463.421875 1947.359375 1468.761719 1950.519531 1465.859375 "/>
<path fill-rule="nonzero" fill="rgb(97.65625%, 74.414062%, 55.271912%)" fill-opacity="1" d="M 1952.679688 1462.078125 C 1952.359375 1462.980469 1952.019531 1463.738281 1951.648438 1464.359375 C 1952.261719 1463.019531 1952.621094 1462.230469 1952.679688 1462.078125 "/>
<path fill-rule="nonzero" fill="rgb(13.719177%, 12.156677%, 12.547302%)" fill-opacity="1" d="M 1874.75 1573.410156 C 1876.398438 1570.558594 1904.289062 1550.808594 1904.289062 1550.808594 C 1904.289062 1550.808594 1925.851562 1452.261719 1938.070312 1454.441406 C 1938.070312 1454.441406 1947.949219 1453.289062 1956.820312 1481.109375 L 1989.628906 1527.78125 L 1978.339844 1536.421875 L 1963.691406 1515.589844 C 1963.691406 1515.589844 1938.96875 1512.71875 1933.859375 1535.859375 C 1928.75 1559 1927.96875 1574.988281 1927.96875 1574.988281 L 1884.539062 1608.230469 C 1884.539062 1608.230469 1849.410156 1617.171875 1874.75 1573.410156 "/>
<path fill-rule="nonzero" fill="rgb(97.65625%, 74.414062%, 55.271912%)" fill-opacity="1" d="M 1862.191406 996.648438 L 1832.710938 1127.460938 C 1832.710938 1127.460938 1830.378906 1158.53125 1827.328125 1202.648438 C 1820.519531 1301.421875 1810.070312 1465.570312 1813.941406 1492.320312 C 1815.359375 1502.25 1815.941406 1511.609375 1815.960938 1520.011719 C 1816.078125 1544.378906 1811.820312 1560.890625 1811.820312 1560.890625 C 1811.820312 1560.890625 1697.320312 1626.988281 1697.929688 1608.289062 C 1698.21875 1599.308594 1703.160156 1593.671875 1712 1586.121094 C 1721.558594 1577.949219 1735.660156 1567.539062 1753.390625 1548.25 C 1785.800781 1520.449219 1764.171875 1288.5 1751.03125 1172 C 1746.53125 1132.109375 1743.019531 1105.761719 1743.019531 1105.761719 C 1738.070312 1084.820312 1735.460938 1062.921875 1734.191406 1043.050781 C 1755.691406 1029.628906 1795.328125 1005.160156 1805.878906 1000.339844 C 1811.03125 997.988281 1813.710938 993.089844 1815.019531 987.710938 L 1862.191406 996.648438 "/>
<path fill-rule="nonzero" fill="rgb(13.719177%, 12.156677%, 12.547302%)" fill-opacity="1" d="M 1709.589844 1586.699219 C 1712.28125 1585.199219 1744.410156 1583.890625 1744.410156 1583.890625 C 1744.410156 1583.890625 1808.699219 1512.070312 1817.648438 1520.71875 C 1817.648438 1520.71875 1826.261719 1525.230469 1820.320312 1553.808594 L 1825 1611.730469 L 1811.691406 1612.808594 L 1809.601562 1586.949219 C 1809.601562 1586.949219 1790.769531 1570.78125 1775.628906 1587.609375 C 1760.5 1604.449219 1752.289062 1617.609375 1752.289062 1617.609375 L 1701.078125 1621.738281 C 1701.078125 1621.738281 1668.160156 1609.828125 1709.589844 1586.699219 "/>
<path fill-rule="nonzero" fill="rgb(97.65625%, 74.414062%, 55.271912%)" fill-opacity="1" d="M 1659.808594 760.230469 C 1659.808594 760.230469 1647.960938 729.628906 1646.929688 720.871094 C 1645.898438 712.109375 1646.929688 700 1646.929688 700 C 1646.929688 700 1642.289062 681.710938 1628.378906 703.859375 C 1628.378906 703.859375 1605.53125 678.738281 1597.46875 675.230469 C 1586.640625 670.511719 1585.460938 727.050781 1587.601562 731.171875 C 1587.601562 731.171875 1590.769531 761.570312 1603.128906 765.691406 C 1615.5 769.820312 1665.480469 774.621094 1665.480469 774.621094 L 1659.808594 760.230469 "/>
<path fill-rule="nonzero" fill="rgb(19.993591%, 19.604492%, 30.200195%)" fill-opacity="1" d="M 2047.800781 1003.960938 C 2055.53125 1051.871094 2041.621094 1085.109375 2002.199219 1116.800781 C 1962.78125 1148.488281 1884.71875 1163.179688 1884.71875 1163.179688 C 1884.71875 1163.179688 1869.261719 1170.128906 1843.769531 1194.859375 C 1839.261719 1199.21875 1833.609375 1201.640625 1827.328125 1202.648438 C 1798.101562 1207.390625 1755.648438 1181.71875 1755.648438 1181.71875 L 1751.03125 1172 L 1725.960938 1119.320312 C 1725.960938 1119.320312 1727.960938 1096.949219 1715.980469 1085.878906 C 1703.988281 1074.820312 1720.089844 1051.871094 1720.089844 1051.871094 C 1720.089844 1051.871094 1725.75 1048.308594 1734.191406 1043.050781 C 1755.691406 1029.628906 1795.328125 1005.160156 1805.878906 1000.339844 C 1811.03125 997.988281 1813.710938 993.089844 1815.019531 987.710938 C 1817.449219 977.710938 1815.171875 966.078125 1815.171875 966.078125 C 1815.171875 966.078125 1754.101562 711.03125 1767.25 687.078125 C 1780.390625 663.109375 1795.839844 666.78125 1795.839844 666.78125 L 1838.53125 656.929688 C 1873.019531 702.070312 1923.148438 692.488281 1981.210938 655.238281 L 2010.710938 669.261719 L 2053.21875 683.210938 L 2013.019531 717.988281 L 2022.289062 777.5 L 2026.941406 833.921875 C 2026.941406 833.921875 2040.078125 956.039062 2047.800781 1003.960938 "/>
<path fill-rule="nonzero" fill="rgb(90.234375%, 90.625%, 91.014099%)" fill-opacity="1" d="M 1866.171875 644.011719 L 1838.53125 656.929688 C 1838.53125 656.929688 1858.449219 748.898438 1893.230469 770.539062 C 1893.230469 770.539062 1966.648438 697.121094 1982.878906 656.160156 L 1954.851562 640.699219 L 1898.230469 666.78125 L 1883.371094 666.78125 C 1877.410156 666.390625 1871.621094 661.851562 1866.019531 652.289062 L 1866.171875 644.011719 "/>
<path fill-rule="nonzero" fill="rgb(65.039062%, 65.818787%, 66.992188%)" fill-opacity="1" d="M 1893.230469 666.980469 C 1893.230469 666.980469 1948.101562 641.46875 1952.738281 636.058594 C 1957.378906 630.648438 1957.378906 645.601562 1957.378906 645.601562 L 1946.550781 666.980469 L 1914.089844 703.640625 C 1914.089844 703.640625 1913.320312 670.839844 1893.230469 666.980469 "/>
<path fill-rule="nonzero" fill="rgb(65.039062%, 65.818787%, 66.992188%)" fill-opacity="1" d="M 1893.230469 666.980469 L 1872.359375 659.21875 L 1878.539062 640.699219 C 1878.539062 640.699219 1871.578125 636.5 1866.171875 644.011719 C 1860.761719 651.519531 1855.351562 662.339844 1855.351562 662.339844 L 1866.171875 694.03125 C 1866.171875 694.03125 1874.679688 666.980469 1893.230469 666.980469 "/>
<path fill-rule="nonzero" fill="rgb(19.993591%, 19.604492%, 30.200195%)" fill-opacity="1" d="M 1785.789062 669.261719 C 1785.789062 669.261719 1774.96875 676.25 1768.019531 687.851562 C 1761.058594 699.441406 1713.140625 859.429688 1713.140625 859.429688 L 1713.140625 932.851562 L 1814.390625 932.851562 L 1808.210938 717.988281 L 1785.789062 669.261719 "/>
<path fill-rule="nonzero" fill="rgb(19.993591%, 19.604492%, 30.200195%)" fill-opacity="1" d="M 1669.859375 768.648438 L 1606.480469 788.320312 L 1677.589844 932.078125 L 1740.191406 932.078125 L 1740.191406 915.851562 "/>
<path fill-rule="nonzero" fill="rgb(100%, 100%, 100%)" fill-opacity="1" d="M 2015.339844 754.261719 C 2015.898438 757.289062 2016.371094 760.328125 2016.890625 763.359375 L 2018.300781 772.480469 C 2019.238281 778.558594 2020.070312 784.660156 2020.898438 790.75 C 2021.699219 796.851562 2022.5 802.949219 2023.199219 809.070312 L 2024.230469 818.238281 C 2024.53125 821.300781 2024.871094 824.359375 2025.128906 827.429688 C 2024.570312 824.398438 2024.101562 821.359375 2023.578125 818.320312 L 2022.171875 809.199219 C 2021.238281 803.121094 2020.398438 797.03125 2019.570312 790.929688 C 2018.769531 784.828125 2017.96875 778.730469 2017.28125 772.621094 L 2016.238281 763.449219 C 2015.941406 760.378906 2015.601562 757.328125 2015.339844 754.261719 "/>
<path fill-rule="nonzero" fill="rgb(100%, 100%, 100%)" fill-opacity="1" d="M 1989.578125 857.109375 C 1992.878906 856.910156 1996.191406 856.808594 1999.488281 856.648438 L 2009.410156 856.339844 C 2016.019531 856.140625 2022.628906 856.058594 2029.25 855.921875 C 2035.859375 855.890625 2042.46875 855.800781 2049.078125 855.820312 L 2059.011719 855.878906 C 2062.308594 855.949219 2065.621094 855.96875 2068.929688 856.078125 C 2065.621094 856.269531 2062.320312 856.378906 2059.011719 856.53125 L 2049.101562 856.851562 C 2042.488281 857.039062 2035.871094 857.121094 2029.261719 857.261719 C 2022.648438 857.289062 2016.039062 857.390625 2009.421875 857.359375 L 1999.5 857.308594 C 1996.191406 857.238281 1992.890625 857.21875 1989.578125 857.109375 "/>
<path fill-rule="nonzero" fill="rgb(100%, 100%, 100%)" fill-opacity="1" d="M 1790.691406 683.210938 C 1793.550781 684.839844 1795.890625 687.308594 1797.859375 689.949219 C 1799.828125 692.621094 1801.351562 695.601562 1802.601562 698.660156 L 1803.460938 700.988281 L 1804.171875 703.359375 C 1804.410156 704.148438 1804.621094 704.949219 1804.78125 705.761719 L 1805.28125 708.179688 C 1805.578125 709.800781 1805.738281 711.441406 1805.949219 713.070312 C 1806.019531 714.710938 1806.121094 716.351562 1806.148438 717.988281 C 1805.820312 716.378906 1805.589844 714.761719 1805.300781 713.160156 C 1804.929688 711.570312 1804.640625 709.96875 1804.261719 708.398438 C 1803.800781 706.839844 1803.511719 705.238281 1802.949219 703.71875 L 1802.21875 701.410156 L 1801.351562 699.160156 C 1800.160156 696.160156 1798.738281 693.261719 1797 690.550781 C 1796.109375 689.210938 1795.191406 687.871094 1794.128906 686.648438 C 1793.109375 685.390625 1791.96875 684.230469 1790.691406 683.210938 "/>
<path fill-rule="nonzero" fill="rgb(100%, 100%, 100%)" fill-opacity="1" d="M 1710.308594 851.960938 C 1713.539062 857.75 1716.390625 863.710938 1719.160156 869.710938 C 1721.890625 875.730469 1724.53125 881.789062 1726.800781 888.019531 C 1723.570312 882.230469 1720.710938 876.269531 1717.941406 870.269531 C 1715.210938 864.25 1712.578125 858.191406 1710.308594 851.960938 "/>
<path fill-rule="nonzero" fill="rgb(19.993591%, 19.604492%, 30.200195%)" fill-opacity="1" d="M 2094.949219 927.441406 C 2059.390625 927.441406 1910.699219 921.449219 1910.699219 921.449219 C 1910.699219 921.449219 1899.808594 916.960938 1899.988281 894.511719 C 1900.179688 872.050781 1906.761719 858.589844 1906.761719 858.589844 C 1906.761719 858.589844 1914.929688 848.109375 1930.738281 857.089844 L 2026.941406 858.589844 L 2024.621094 805.058594 L 2020.75 775.519531 L 2014.601562 735.839844 L 2012.449219 724.398438 C 2011.890625 721.398438 2012.648438 718.300781 2014.53125 715.898438 L 2018.941406 710.261719 L 2035.539062 689.441406 C 2038.421875 685.828125 2042.730469 683.640625 2047.359375 683.449219 L 2053.21875 683.210938 C 2053.21875 683.210938 2077.28125 693.320312 2077.53125 720.210938 C 2077.761719 721.640625 2077.910156 723.101562 2077.949219 724.621094 L 2114.269531 890.769531 C 2114.269531 890.769531 2130.5 927.441406 2094.949219 927.441406 "/>
<path fill-rule="nonzero" fill="rgb(90.234375%, 88.28125%, 90.625%)" fill-opacity="1" d="M 1881.390625 868.769531 L 1849.941406 736.019531 C 1849.941406 736.019531 1728.859375 742.101562 1721.640625 754.261719 L 1769.050781 931.308594 L 1897.351562 929.238281 L 1881.390625 868.769531 "/>
<path fill-rule="nonzero" fill="rgb(97.65625%, 74.414062%, 55.271912%)" fill-opacity="1" d="M 1898.890625 869.988281 C 1898.890625 869.988281 1864.371094 867.929688 1855.351562 865.871094 C 1846.339844 863.808594 1820.570312 855.558594 1819.03125 872.570312 C 1817.480469 889.570312 1825.730469 897.808594 1825.730469 897.808594 C 1825.730469 897.808594 1839.449219 910.28125 1858.859375 909.710938 C 1858.859375 909.710938 1895.800781 914.300781 1908.171875 912.761719 C 1920.53125 911.210938 1898.890625 869.988281 1898.890625 869.988281 "/>
<path fill-rule="nonzero" fill="rgb(100%, 100%, 100%)" fill-opacity="1" d="M 1893.03125 860.269531 C 1894.621094 862.601562 1896.070312 865.011719 1897.539062 867.421875 C 1898.960938 869.851562 1900.328125 872.308594 1901.660156 874.800781 C 1904.308594 879.769531 1906.710938 884.890625 1908.761719 890.160156 C 1910.730469 895.441406 1912.53125 900.890625 1912.980469 906.609375 C 1913.160156 909.441406 1913 912.421875 1911.75 915.078125 C 1911.578125 915.398438 1911.371094 915.699219 1911.179688 916.011719 C 1911.078125 916.160156 1910.988281 916.308594 1910.878906 916.460938 L 1910.5 916.859375 C 1910.25 917.121094 1910.019531 917.398438 1909.738281 917.628906 C 1909.460938 917.859375 1909.171875 918.070312 1908.859375 918.261719 C 1907.628906 919.019531 1906.21875 919.390625 1904.828125 919.53125 C 1906.199219 919.25 1907.539062 918.761719 1908.660156 917.960938 C 1908.941406 917.761719 1909.210938 917.539062 1909.460938 917.308594 C 1909.699219 917.070312 1909.890625 916.789062 1910.121094 916.53125 L 1910.441406 916.140625 C 1910.53125 916 1910.601562 915.839844 1910.691406 915.691406 C 1910.839844 915.390625 1911.019531 915.101562 1911.160156 914.800781 C 1912.199219 912.269531 1912.25 909.429688 1911.949219 906.699219 C 1911.621094 903.960938 1911 901.230469 1910.210938 898.558594 C 1909.441406 895.890625 1908.519531 893.25 1907.511719 890.640625 C 1905.519531 885.410156 1903.160156 880.320312 1900.738281 875.261719 C 1899.53125 872.730469 1898.261719 870.21875 1896.960938 867.730469 C 1895.699219 865.21875 1894.359375 862.75 1893.03125 860.269531 "/>
<path fill-rule="nonzero" fill="rgb(100%, 100%, 100%)" fill-opacity="1" d="M 1918.949219 764.980469 L 1923.730469 760.898438 C 1925.308594 759.53125 1926.859375 758.109375 1928.421875 756.71875 C 1931.539062 753.929688 1934.609375 751.078125 1937.589844 748.148438 C 1943.570312 742.300781 1949.339844 736.238281 1954.730469 729.851562 C 1960.199219 723.53125 1965.308594 716.898438 1970.101562 710.050781 C 1972.488281 706.621094 1974.839844 703.148438 1977.039062 699.589844 C 1979.328125 696.078125 1981.410156 692.449219 1983.539062 688.828125 C 1981.679688 692.589844 1979.699219 696.300781 1977.601562 699.929688 C 1975.511719 703.570312 1973.25 707.109375 1970.960938 710.628906 C 1966.320312 717.640625 1961.171875 724.300781 1955.75 730.71875 C 1950.238281 737.070312 1944.449219 743.171875 1938.300781 748.890625 C 1935.21875 751.75 1932.058594 754.519531 1928.851562 757.21875 C 1927.21875 758.53125 1925.609375 759.878906 1923.949219 761.171875 L 1918.949219 764.980469 "/>
<path fill-rule="nonzero" fill="rgb(100%, 100%, 100%)" fill-opacity="1" d="M 1814.628906 997.820312 C 1818.871094 996.859375 1823.359375 997.058594 1827.609375 998.128906 C 1829.71875 998.699219 1831.789062 999.460938 1833.730469 1000.480469 C 1835.671875 1001.480469 1837.480469 1002.738281 1839.078125 1004.191406 C 1837.171875 1003.171875 1835.25 1002.25 1833.289062 1001.429688 C 1831.320312 1000.628906 1829.320312 999.960938 1827.269531 999.429688 C 1823.179688 998.359375 1818.960938 997.921875 1814.628906 997.820312 "/>
<path fill-rule="nonzero" fill="rgb(85.15625%, 59.568787%, 45.092773%)" fill-opacity="1" d="M 1826.441406 1215.769531 C 1826.378906 1218.960938 1826.238281 1222.140625 1826.140625 1225.328125 L 1825.699219 1234.871094 C 1825.398438 1241.230469 1824.96875 1247.589844 1824.609375 1253.941406 C 1824.140625 1260.300781 1823.730469 1266.648438 1823.199219 1273 L 1822.390625 1282.519531 C 1822.070312 1285.691406 1821.789062 1288.859375 1821.429688 1292.03125 C 1821.488281 1288.839844 1821.628906 1285.660156 1821.730469 1282.480469 L 1822.171875 1272.929688 C 1822.480469 1266.570312 1822.898438 1260.210938 1823.269531 1253.859375 C 1823.738281 1247.511719 1824.148438 1241.148438 1824.679688 1234.800781 L 1825.488281 1225.28125 C 1825.808594 1222.109375 1826.078125 1218.941406 1826.441406 1215.769531 "/>
<path fill-rule="nonzero" fill="rgb(27.43988%, 25.097656%, 42.358398%)" fill-opacity="1" d="M 2014.601562 735.839844 L 2013.539062 726.179688 L 2010.191406 720.570312 "/>
<path fill-rule="nonzero" fill="rgb(70.117188%, 70.506287%, 71.289062%)" fill-opacity="1" d="M 2362.351562 1650.859375 L 2335.929688 1650.859375 L 2324.410156 948.851562 L 2373.878906 948.851562 L 2362.351562 1650.859375 "/>
<path fill-rule="nonzero" fill="rgb(70.117188%, 70.506287%, 71.289062%)" fill-opacity="1" d="M 827.292969 1653.058594 L 853.710938 1653.058594 L 865.234375 951.050781 L 815.769531 951.050781 L 827.292969 1653.058594 "/>
<path fill-rule="nonzero" fill="rgb(35.693359%, 30.589294%, 23.925781%)" fill-opacity="1" d="M 2415.140625 965.308594 L 789.464844 965.308594 L 789.464844 927.179688 L 2415.140625 927.179688 L 2415.140625 965.308594 "/>
<path fill-rule="nonzero" fill="rgb(100%, 100%, 100%)" fill-opacity="1" d="M 852.566406 1101.441406 L 852.890625 1139.921875 L 853.078125 1178.398438 L 853.234375 1255.351562 L 853.082031 1332.300781 L 852.894531 1370.78125 L 852.566406 1409.261719 L 852.238281 1370.78125 L 852.050781 1332.300781 L 851.894531 1255.351562 L 852.050781 1178.398438 L 852.238281 1139.921875 L 852.566406 1101.441406 "/>
<path fill-rule="nonzero" fill="rgb(100%, 100%, 100%)" fill-opacity="1" d="M 2342.429688 1457.050781 L 2342.101562 1420.328125 L 2341.910156 1383.621094 L 2341.761719 1310.179688 L 2341.910156 1236.75 L 2342.101562 1200.039062 L 2342.429688 1163.320312 L 2342.75 1200.039062 L 2342.941406 1236.75 L 2343.101562 1310.179688 L 2342.941406 1383.621094 L 2342.75 1420.328125 L 2342.429688 1457.050781 "/>
<path fill-rule="nonzero" fill="rgb(54.881287%, 54.101562%, 54.492188%)" fill-opacity="1" d="M 1690.441406 927.179688 L 1779.199219 927.179688 C 1782.128906 927.179688 1784.511719 924.808594 1784.511719 921.878906 L 1784.511719 921.148438 C 1784.511719 918.21875 1782.128906 915.851562 1779.199219 915.851562 L 1689.949219 915.851562 C 1685.679688 915.851562 1683.160156 920.621094 1685.558594 924.140625 L 1686.058594 924.871094 C 1687.050781 926.320312 1688.691406 927.179688 1690.441406 927.179688 "/>
<path fill-rule="nonzero" fill="rgb(54.881287%, 54.101562%, 54.492188%)" fill-opacity="1" d="M 1688.441406 927.179688 L 1661.320312 773.140625 C 1661.320312 773.140625 1655.570312 759.160156 1633.570312 759.210938 C 1602.488281 759.28125 1513.480469 764.359375 1513.480469 764.359375 L 1571.96875 927.179688 L 1688.441406 927.179688 "/>
<path fill-rule="nonzero" fill="rgb(85.15625%, 85.9375%, 85.546875%)" fill-opacity="1" d="M 1687.640625 927.441406 L 1657.910156 771.441406 C 1656.550781 764.320312 1650.320312 759.160156 1643.058594 759.160156 L 1429.898438 759.160156 C 1420.339844 759.160156 1413.179688 767.921875 1415.089844 777.289062 L 1445.570312 927.179688 L 1687.640625 927.441406 "/>
<path fill-rule="nonzero" fill="rgb(65.818787%, 66.601562%, 66.209412%)" fill-opacity="1" d="M 1551.210938 840.519531 C 1551.210938 847.96875 1544.398438 854.019531 1536.011719 854.019531 C 1527.621094 854.019531 1520.808594 847.96875 1520.808594 840.519531 C 1520.808594 833.058594 1527.621094 827.011719 1536.011719 827.011719 C 1544.398438 827.011719 1551.210938 833.058594 1551.210938 840.519531 "/>
<path fill-rule="nonzero" fill="rgb(97.65625%, 74.414062%, 55.271912%)" fill-opacity="1" d="M 1430.300781 1077.738281 C 1430.300781 1077.738281 1469.71875 1092.070312 1476.671875 1111.390625 C 1483.628906 1130.710938 1483.109375 1163.78125 1483.109375 1163.78125 L 1410.980469 1095.160156 L 1430.300781 1077.738281 "/>
<path fill-rule="nonzero" fill="rgb(97.65625%, 74.414062%, 55.271912%)" fill-opacity="1" d="M 1083.769531 627.820312 C 1083.769531 627.820312 1094.589844 641.441406 1093.039062 655.238281 C 1091.5 669.039062 1088.480469 686.039062 1088.480469 686.039062 L 1159.511719 697.890625 C 1159.511719 697.890625 1158.398438 691.710938 1159.511719 671.609375 C 1160.621094 651.519531 1163.628906 642.761719 1163.628906 642.761719 L 1146.628906 617.898438 L 1083.769531 627.820312 "/>
<path fill-rule="nonzero" fill="rgb(97.65625%, 74.414062%, 55.271912%)" fill-opacity="1" d="M 1230.128906 590.859375 C 1229.839844 590.511719 1229.550781 590.050781 1229.269531 589.640625 L 1229.269531 535.589844 C 1229.269531 510.320312 1207.46875 489.640625 1180.828125 489.640625 L 1179.648438 489.640625 C 1153.011719 489.640625 1131.210938 510.320312 1131.210938 535.589844 L 1131.210938 564.25 C 1129.378906 563.800781 1127.421875 563.660156 1125.460938 564.25 C 1119.101562 566.171875 1117.378906 574.109375 1116.109375 579.941406 C 1115.308594 583.609375 1113.738281 590.800781 1117.539062 598.371094 C 1118.871094 601 1122.429688 608.101562 1129.769531 609.289062 C 1130.28125 609.371094 1130.738281 609.351562 1131.21875 609.371094 C 1131.261719 634.609375 1153.039062 655.238281 1179.648438 655.238281 L 1180.828125 655.238281 C 1207.46875 655.238281 1229.269531 634.558594 1229.269531 609.289062 L 1229.269531 601.859375 C 1229.441406 601.828125 1229.589844 601.828125 1229.769531 601.78125 C 1230.089844 601.691406 1233.828125 600.550781 1234.441406 598.03125 C 1235.03125 595.621094 1232.339844 593.609375 1230.128906 590.859375 "/>
<path fill-rule="nonzero" fill="rgb(96.875%, 65.039062%, 50.584412%)" fill-opacity="1" d="M 1170.738281 607.628906 C 1160.859375 607.628906 1152.839844 599.609375 1152.839844 589.730469 C 1152.839844 579.839844 1160.859375 571.820312 1170.738281 571.820312 C 1180.628906 571.820312 1188.648438 579.839844 1188.648438 589.730469 C 1188.648438 599.609375 1180.628906 607.628906 1170.738281 607.628906 "/>
<path fill-rule="nonzero" fill="rgb(13.719177%, 12.156677%, 12.547302%)" fill-opacity="1" d="M 1220.320312 617.570312 C 1214.851562 619.210938 1209.058594 618.441406 1204.089844 615.679688 C 1203.078125 615.121094 1202.179688 616.671875 1203.191406 617.21875 C 1208.558594 620.210938 1214.871094 621.058594 1220.789062 619.289062 C 1221.890625 618.96875 1221.421875 617.238281 1220.320312 617.570312 "/>
<path fill-rule="nonzero" fill="rgb(13.719177%, 12.156677%, 12.547302%)" fill-opacity="1" d="M 1220.128906 566.359375 C 1221.210938 570.949219 1218.371094 575.539062 1213.78125 576.621094 C 1209.199219 577.710938 1204.601562 574.871094 1203.519531 570.28125 C 1202.441406 565.691406 1205.28125 561.101562 1209.859375 560.019531 C 1214.449219 558.941406 1219.039062 561.78125 1220.128906 566.359375 "/>
<path fill-rule="nonzero" fill="rgb(13.719177%, 12.156677%, 12.547302%)" fill-opacity="1" d="M 1218.738281 545.800781 C 1209.828125 542.851562 1200.210938 546.070312 1194.308594 553.21875 C 1193 554.808594 1195.261719 557.089844 1196.578125 555.488281 C 1198.5 553.160156 1200.859375 551.21875 1203.550781 549.839844 C 1208.019531 547.558594 1213.148438 547.328125 1217.890625 548.898438 C 1219.851562 549.550781 1220.699219 546.449219 1218.738281 545.800781 "/>
<path fill-rule="nonzero" fill="rgb(22.75238%, 19.604492%, 16.868591%)" fill-opacity="1" d="M 1131.691406 564.261719 C 1139.050781 566.289062 1139.050781 566.289062 1140.449219 570.109375 C 1141.558594 573.140625 1140.140625 576.199219 1140.449219 576.289062 C 1141.148438 576.511719 1143.421875 558.570312 1154.359375 552.589844 C 1158.550781 550.300781 1161.210938 551.300781 1168.789062 551.039062 C 1186.371094 550.460938 1199.789062 544.121094 1205.878906 541.25 C 1219.03125 535.058594 1227.398438 527.230469 1232.160156 522.710938 C 1239.578125 515.648438 1249.710938 506.03125 1255.351562 490.238281 C 1258.75 480.730469 1263.121094 468.5 1256.898438 457.269531 C 1252.269531 448.921875 1242.480469 442.351562 1233.191406 442.839844 C 1227.460938 443.140625 1226.019531 445.921875 1217.738281 449.019531 C 1211.898438 451.199219 1206.660156 452.058594 1192.488281 452.628906 C 1177.511719 453.238281 1166.238281 452.980469 1147.660156 452.628906 C 1125.738281 452.21875 1122.769531 452.230469 1117.261719 453.140625 C 1108.328125 454.628906 1098.011719 456.460938 1087.378906 463.96875 C 1083.238281 466.878906 1072.171875 474.921875 1067.28125 489.210938 C 1065.890625 493.269531 1060.980469 507.648438 1064.699219 516.519531 C 1065.058594 517.378906 1066.230469 519.910156 1065.21875 522.191406 C 1063.898438 525.160156 1059.75 525.78125 1058 526.308594 C 1048.691406 529.171875 1046.25 548.71875 1045.640625 553.621094 C 1041.921875 583.410156 1058.96875 607.851562 1062.640625 612.871094 C 1065.21875 616.410156 1073.53125 627.230469 1087.890625 636.058594 C 1101.25 644.269531 1110.71875 645.160156 1113.140625 645.339844 C 1118.601562 645.730469 1125.421875 646.230469 1130.660156 642.238281 C 1134.820312 639.078125 1137.808594 633.210938 1137.871094 617 C 1137.988281 586.03125 1131.300781 568.050781 1131.691406 564.261719 "/>
<path fill-rule="nonzero" fill="rgb(97.65625%, 74.414062%, 55.271912%)" fill-opacity="1" d="M 1137.609375 565.320312 C 1135.421875 565.101562 1133.160156 565.039062 1130.871094 565.488281 C 1121.289062 567.398438 1118.691406 575.300781 1116.769531 581.101562 C 1115.570312 584.75 1113.210938 591.898438 1118.941406 599.429688 C 1120.929688 602.050781 1126.308594 609.109375 1137.378906 610.289062 L 1137.609375 610.300781 L 1137.609375 565.320312 "/>
<path fill-rule="nonzero" fill="rgb(85.15625%, 59.568787%, 45.092773%)" fill-opacity="1" d="M 1134.890625 569.570312 C 1133.621094 569.789062 1129.371094 570.671875 1125.96875 574.5 C 1122.179688 578.761719 1122.089844 583.679688 1122.101562 584.859375 "/>
<path fill-rule="nonzero" fill="rgb(9.423828%, 18.431091%, 19.993591%)" fill-opacity="1" d="M 1137.609375 566.128906 C 1137.609375 566.128906 1132.71875 564.621094 1130.601562 565.550781 C 1128.488281 566.480469 1131.640625 563.710938 1131.640625 563.710938 L 1137.988281 564.488281 L 1137.609375 566.128906 "/>
<path fill-rule="nonzero" fill="rgb(97.65625%, 74.414062%, 55.271912%)" fill-opacity="1" d="M 1135.871094 608.820312 L 1139.351562 611.910156 L 1139.351562 603.601562 Z M 1135.871094 608.820312 "/>
<path fill-rule="nonzero" fill="rgb(85.15625%, 59.568787%, 45.092773%)" fill-opacity="1" d="M 1159.691406 651.121094 C 1159.691406 651.121094 1156.941406 652.019531 1149.710938 645.339844 C 1142.480469 638.660156 1160.550781 659.21875 1160.550781 659.21875 L 1161.589844 651.890625 L 1159.691406 651.121094 "/>
<path fill-rule="nonzero" fill="rgb(100%, 100%, 100%)" fill-opacity="1" d="M 1240.988281 450.210938 C 1236.820312 455.910156 1230.03125 463.589844 1219.769531 469.308594 C 1210.128906 474.679688 1200.691406 476.511719 1191.441406 476.511719 C 1171.671875 476.519531 1152.800781 468.140625 1134.941406 468.140625 C 1127.601562 468.140625 1120.429688 469.558594 1113.449219 473.558594 C 1090.921875 486.5 1085.949219 517.390625 1081.488281 544.890625 C 1080.03125 553.921875 1078.46875 563.570312 1078.46875 573.199219 C 1078.46875 585.179688 1080.890625 597.109375 1088.960938 607.71875 C 1099.941406 622.148438 1116.078125 627.171875 1124.121094 629.03125 L 1124.179688 628.769531 C 1116.171875 626.910156 1100.089844 621.910156 1089.179688 607.558594 C 1081.148438 597.011719 1078.738281 585.140625 1078.738281 573.199219 C 1078.738281 563.601562 1080.300781 553.960938 1081.761719 544.929688 C 1086.210938 517.429688 1091.210938 486.621094 1113.589844 473.800781 C 1120.519531 469.820312 1127.640625 468.410156 1134.941406 468.410156 C 1152.71875 468.410156 1171.601562 476.78125 1191.441406 476.78125 C 1200.71875 476.78125 1210.21875 474.941406 1219.898438 469.539062 C 1230.210938 463.800781 1237.019531 456.078125 1241.210938 450.371094 L 1240.988281 450.210938 "/>
<path fill-rule="nonzero" fill="rgb(100%, 100%, 100%)" fill-opacity="1" d="M 1112.589844 559.761719 C 1111.730469 556.738281 1109.628906 548.75 1109.628906 539.628906 C 1109.628906 531.089844 1111.46875 521.550781 1117.878906 514.171875 C 1127.660156 502.871094 1143.660156 501.761719 1163.5 500.390625 C 1167.03125 500.148438 1170.199219 500.050781 1173.089844 500.050781 C 1185.46875 500.050781 1192.558594 501.859375 1199.828125 501.859375 C 1203.421875 501.859375 1207.050781 501.421875 1211.359375 500.101562 C 1221.398438 497.019531 1234.308594 489.429688 1246.53125 469.5 L 1246.300781 469.359375 C 1234.109375 489.238281 1221.261719 496.769531 1211.28125 499.839844 C 1207 501.148438 1203.398438 501.589844 1199.828125 501.589844 C 1192.609375 501.589844 1185.488281 499.78125 1173.089844 499.78125 C 1170.199219 499.78125 1167.019531 499.878906 1163.480469 500.121094 C 1143.648438 501.488281 1127.558594 502.578125 1117.671875 513.988281 C 1111.210938 521.449219 1109.359375 531.050781 1109.359375 539.628906 C 1109.359375 548.789062 1111.46875 556.800781 1112.328125 559.828125 L 1112.589844 559.761719 "/>
<path fill-rule="nonzero" fill="rgb(97.65625%, 74.414062%, 55.271912%)" fill-opacity="1" d="M 1349.230469 1610.539062 L 1280.699219 1610.371094 L 1280.921875 1521.621094 L 1349.460938 1521.800781 L 1349.230469 1610.539062 "/>
<path fill-rule="nonzero" fill="rgb(9.423828%, 18.431091%, 19.993591%)" fill-opacity="1" d="M 1272.929688 1604.199219 L 1355.148438 1604.410156 C 1382.429688 1616.820312 1411.589844 1625.210938 1443.179688 1628.410156 C 1443.179688 1628.410156 1463.441406 1639.019531 1443.121094 1649.101562 C 1422.808594 1659.171875 1276.539062 1656.160156 1276.539062 1656.160156 C 1267.101562 1642.800781 1265.960938 1625.449219 1272.929688 1604.199219 "/>
<path fill-rule="nonzero" fill="rgb(97.65625%, 74.414062%, 55.271912%)" fill-opacity="1" d="M 1564.578125 1601.410156 L 1499.5 1617.421875 L 1478.761719 1533.148438 L 1543.839844 1517.140625 L 1564.578125 1601.410156 "/>
<path fill-rule="nonzero" fill="rgb(9.423828%, 18.431091%, 19.993591%)" fill-opacity="1" d="M 1494.179688 1595.75 L 1574.570312 1596.929688 C 1601.101562 1609.378906 1629.511719 1617.929688 1660.359375 1621.429688 C 1660.359375 1621.429688 1680.039062 1632.058594 1660.058594 1641.671875 C 1640.078125 1651.28125 1497.089844 1646.601562 1497.089844 1646.601562 C 1488.019531 1633.429688 1487.109375 1616.449219 1494.179688 1595.75 "/>
<path fill-rule="nonzero" fill="rgb(20.384216%, 37.255859%, 54.101562%)" fill-opacity="1" d="M 1234.519531 1085.878906 L 1428.480469 1101.441406 C 1428.480469 1101.441406 1477.941406 1116.800781 1486.191406 1181.71875 C 1494.429688 1246.640625 1554.199219 1555.800781 1554.199219 1555.800781 C 1554.199219 1555.800781 1519.160156 1578.46875 1482.058594 1574.351562 C 1482.058594 1574.351562 1385.191406 1337.328125 1368.710938 1273.441406 C 1352.21875 1209.539062 1269.78125 1269.320312 1269.78125 1269.320312 L 1079.070312 1211.761719 L 1182.441406 1101.441406 L 1234.519531 1085.878906 "/>
<path fill-rule="nonzero" fill="rgb(89.84375%, 90.234375%, 91.796875%)" fill-opacity="1" d="M 1435.691406 1080.738281 C 1435.691406 1080.738281 1433.628906 1100.308594 1418.171875 1101.339844 C 1402.71875 1102.378906 1328.519531 1095.148438 1328.519531 1095.148438 C 1328.519531 1095.148438 1279.121094 1050.109375 1251.769531 1021.28125 L 1254.320312 1065.851562 C 1254.320312 1065.851562 1250.191406 1090 1222.378906 1127.789062 C 1194.550781 1165.578125 1162.601562 1190.78125 1162.601562 1190.78125 L 1146.53125 1197.960938 C 1099.71875 1218.890625 1045.671875 1215.859375 1001.488281 1189.851562 L 984.015625 1179.558594 C 932.730469 1149.371094 902.6875 1092.980469 906.230469 1033.578125 L 919.40625 812.839844 L 964.738281 727.808594 C 964.738281 727.808594 972.984375 706.820312 993.601562 704.71875 C 1014.199219 702.609375 1045.121094 697.890625 1045.121094 697.890625 L 1186.308594 712.070312 L 1234.078125 718.308594 L 1234.519531 717.988281 C 1234.519531 717.988281 1250.191406 727.261719 1264.621094 777.761719 C 1279.050781 828.25 1334.691406 989.011719 1334.691406 989.011719 C 1334.691406 989.011719 1331.609375 995.199219 1379.011719 1033.328125 C 1426.421875 1071.449219 1435.691406 1080.738281 1435.691406 1080.738281 "/>
<path fill-rule="nonzero" fill="rgb(89.84375%, 90.234375%, 91.796875%)" fill-opacity="1" d="M 1045.109375 697.890625 L 1068.050781 683.210938 L 1163.628906 690.550781 L 1182.441406 711.808594 L 1045.109375 697.890625 "/>
<path fill-rule="nonzero" fill="rgb(68.164062%, 70.506287%, 73.242188%)" fill-opacity="1" d="M 1234.519531 1000.351562 C 1233.070312 996.101562 1231.699219 991.828125 1230.289062 987.570312 L 1226.191406 974.75 C 1223.460938 966.199219 1220.859375 957.609375 1218.191406 949.039062 C 1215.621094 940.441406 1213 931.859375 1210.488281 923.25 L 1206.75 910.320312 C 1205.550781 905.988281 1204.300781 901.679688 1203.140625 897.351562 C 1204.589844 901.589844 1205.960938 905.871094 1207.378906 910.128906 L 1211.480469 922.949219 C 1214.199219 931.5 1216.808594 940.089844 1219.46875 948.648438 C 1222.03125 957.25 1224.660156 965.828125 1227.171875 974.449219 L 1230.910156 987.378906 C 1232.109375 991.699219 1233.359375 996.011719 1234.519531 1000.351562 "/>
<path fill-rule="nonzero" fill="rgb(68.164062%, 70.506287%, 73.242188%)" fill-opacity="1" d="M 1176.339844 803.761719 C 1173.039062 797.03125 1171.488281 789.441406 1171.648438 781.890625 C 1171.789062 774.320312 1174.03125 766.820312 1177.859375 760.28125 C 1179.820312 757.019531 1182.21875 754.070312 1184.800781 751.308594 C 1186.148438 749.980469 1187.460938 748.628906 1188.929688 747.441406 C 1189.660156 746.839844 1190.328125 746.171875 1191.101562 745.628906 L 1193.378906 743.949219 C 1194.121094 743.378906 1194.921875 742.871094 1195.710938 742.371094 L 1198.089844 740.839844 C 1199.710938 739.890625 1201.351562 738.988281 1202.988281 738.078125 L 1208.078125 735.671875 C 1209.808594 734.941406 1211.539062 734.238281 1213.269531 733.539062 C 1211.601562 734.371094 1209.910156 735.191406 1208.230469 735.988281 L 1203.308594 738.660156 C 1201.710938 739.621094 1200.109375 740.570312 1198.539062 741.558594 L 1196.238281 743.148438 C 1195.480469 743.671875 1194.710938 744.191406 1193.988281 744.78125 C 1192.53125 745.929688 1191.058594 747.058594 1189.691406 748.308594 C 1188.261719 749.5 1186.988281 750.839844 1185.691406 752.148438 C 1183.191406 754.878906 1180.890625 757.78125 1179.011719 760.960938 C 1177.121094 764.128906 1175.601562 767.511719 1174.539062 771.039062 C 1173.460938 774.570312 1172.890625 778.238281 1172.671875 781.929688 C 1172.480469 785.621094 1172.691406 789.351562 1173.339844 793.011719 C 1173.941406 796.679688 1174.921875 800.300781 1176.339844 803.761719 "/>
<path fill-rule="nonzero" fill="rgb(68.164062%, 70.506287%, 73.242188%)" fill-opacity="1" d="M 1057.230469 697.890625 C 1061.46875 698.21875 1065.691406 698.628906 1069.929688 699 L 1082.601562 700.25 C 1091.058594 701.101562 1099.488281 702.070312 1107.941406 702.96875 C 1116.371094 703.980469 1124.808594 704.929688 1133.230469 705.988281 L 1145.871094 707.621094 C 1150.078125 708.210938 1154.289062 708.75 1158.488281 709.378906 C 1154.25 709.050781 1150.03125 708.640625 1145.800781 708.269531 L 1133.121094 707.019531 C 1124.671875 706.171875 1116.230469 705.210938 1107.789062 704.300781 C 1099.351562 703.289062 1090.921875 702.339844 1082.488281 701.269531 L 1069.851562 699.648438 C 1065.648438 699.058594 1061.429688 698.519531 1057.230469 697.890625 "/>
<path fill-rule="nonzero" fill="rgb(20.384216%, 37.255859%, 54.101562%)" fill-opacity="1" d="M 1231.46875 1255.351562 L 1274.410156 1589.808594 C 1274.410156 1589.808594 1339.339844 1600.628906 1351.699219 1589.808594 C 1364.070312 1578.988281 1351.699219 1201.820312 1351.699219 1201.820312 L 1231.46875 1255.351562 "/>
<path fill-rule="nonzero" fill="rgb(100%, 100%, 100%)" fill-opacity="1" d="M 1360.308594 1255.699219 C 1359.128906 1252.898438 1358.039062 1250.058594 1356.898438 1247.238281 L 1353.621094 1238.738281 C 1351.429688 1233.058594 1349.351562 1227.351562 1347.261719 1221.648438 C 1345.199219 1215.929688 1343.148438 1210.210938 1341.199219 1204.449219 L 1338.269531 1195.808594 C 1337.339844 1192.921875 1336.359375 1190.039062 1335.46875 1187.128906 C 1336.648438 1189.941406 1337.75 1192.769531 1338.890625 1195.589844 L 1342.171875 1204.101562 C 1344.351562 1209.769531 1346.441406 1215.480469 1348.519531 1221.191406 C 1350.578125 1226.910156 1352.628906 1232.628906 1354.578125 1238.390625 L 1357.511719 1247.019531 C 1358.441406 1249.921875 1359.421875 1252.800781 1360.308594 1255.699219 "/>
<path fill-rule="nonzero" fill="rgb(68.164062%, 70.506287%, 73.242188%)" fill-opacity="1" d="M 990.859375 721.929688 C 990.894531 724.96875 990.84375 728.011719 990.835938 731.058594 L 990.675781 740.191406 C 990.566406 746.269531 990.351562 752.351562 990.132812 758.429688 C 989.886719 764.511719 989.636719 770.589844 989.28125 776.671875 L 988.746094 785.78125 C 988.519531 788.808594 988.335938 791.851562 988.066406 794.890625 C 988.03125 791.839844 988.082031 788.800781 988.089844 785.75 L 988.25 776.628906 C 988.359375 770.539062 988.574219 764.460938 988.792969 758.378906 C 989.042969 752.300781 989.292969 746.21875 989.648438 740.148438 L 990.183594 731.03125 C 990.410156 728 990.59375 724.960938 990.859375 721.929688 "/>
<path fill-rule="nonzero" fill="rgb(49.804688%, 49.804688%, 50.584412%)" fill-opacity="1" d="M 1114.691406 1622.058594 L 1076.859375 1622.058594 L 1076.859375 1330.371094 L 1114.691406 1330.371094 L 1114.691406 1622.058594 "/>
<path fill-rule="nonzero" fill="rgb(74.021912%, 68.164062%, 60.742188%)" fill-opacity="1" d="M 859.941406 817.949219 C 859.941406 817.949219 1044.398438 784.96875 1096.441406 863.289062 C 1148.488281 941.609375 1167.46875 1054.96875 1167.46875 1054.96875 L 1167.46875 1162.140625 C 1167.46875 1162.140625 1173.28125 1221.910156 1224.769531 1221.910156 C 1276.269531 1221.910156 1301 1211.609375 1301 1211.609375 C 1301 1211.609375 1366.960938 1207.480469 1381.378906 1281.679688 C 1381.378906 1281.679688 1371.980469 1320.839844 1152.03125 1337.328125 C 985.664062 1367.210938 940.835938 1294.558594 930.015625 1269.320312 C 940.835938 1282.199219 808.414062 1096.191406 859.941406 817.949219 "/>
<path fill-rule="nonzero" fill="rgb(49.804688%, 49.804688%, 50.584412%)" fill-opacity="1" d="M 939.316406 1651.308594 L 1265.320312 1651.308594 C 1265.320312 1651.308594 1125.710938 1588.640625 1082.558594 1593.03125 C 1039.421875 1597.421875 939.316406 1651.308594 939.316406 1651.308594 "/>
<path fill-rule="nonzero" fill="rgb(63.084412%, 61.914062%, 59.179688%)" fill-opacity="1" d="M 2311.25 1442 L 2140.230469 1442 C 2137.488281 1442 2135.261719 1439.78125 2135.261719 1437.03125 C 2135.261719 1434.289062 2137.488281 1432.058594 2140.230469 1432.058594 L 2311.25 1432.058594 C 2313.988281 1432.058594 2316.21875 1434.289062 2316.21875 1437.03125 C 2316.21875 1439.78125 2313.988281 1442 2311.25 1442 "/>
<path fill-rule="nonzero" fill="rgb(63.084412%, 61.914062%, 59.179688%)" fill-opacity="1" d="M 2291.160156 1647.78125 L 2160.320312 1647.78125 C 2157.578125 1647.78125 2155.351562 1645.550781 2155.351562 1642.808594 C 2155.351562 1640.058594 2157.578125 1637.839844 2160.320312 1637.839844 L 2291.160156 1637.839844 C 2293.898438 1637.839844 2296.128906 1640.058594 2296.128906 1642.808594 C 2296.128906 1645.550781 2293.898438 1647.78125 2291.160156 1647.78125 "/>
<path fill-rule="nonzero" fill="rgb(63.084412%, 61.914062%, 59.179688%)" fill-opacity="1" d="M 2161.609375 1637.101562 L 2289.878906 1637.101562 L 2307.21875 1441.269531 L 2144.261719 1441.269531 Z M 2292.371094 1639.820312 L 2159.109375 1639.820312 L 2141.289062 1438.550781 L 2310.191406 1438.550781 L 2292.371094 1639.820312 "/>
<path fill-rule="nonzero" fill="rgb(63.084412%, 61.914062%, 59.179688%)" fill-opacity="1" d="M 2162.011719 1639.378906 L 2159.988281 1637.539062 L 2304.121094 1479.398438 L 2306.128906 1481.238281 L 2162.011719 1639.378906 "/>
<path fill-rule="nonzero" fill="rgb(63.084412%, 61.914062%, 59.179688%)" fill-opacity="1" d="M 2157.539062 1596.210938 L 2155.53125 1594.371094 L 2297.140625 1438.988281 L 2299.148438 1440.828125 L 2157.539062 1596.210938 "/>
<path fill-rule="nonzero" fill="rgb(63.084412%, 61.914062%, 59.179688%)" fill-opacity="1" d="M 2206.421875 1639.378906 L 2204.410156 1637.539062 L 2299.339844 1533.378906 L 2300.351562 1534.300781 L 2301.710938 1534.300781 L 2301.710938 1534.828125 L 2301.351562 1535.21875 L 2206.421875 1639.378906 "/>
<path fill-rule="nonzero" fill="rgb(63.084412%, 61.914062%, 59.179688%)" fill-opacity="1" d="M 2149.71875 1508.109375 L 2147.738281 1506.238281 L 2211.03125 1438.980469 L 2213.011719 1440.851562 L 2149.71875 1508.109375 "/>
<path fill-rule="nonzero" fill="rgb(63.084412%, 61.914062%, 59.179688%)" fill-opacity="1" d="M 2153.738281 1552.609375 L 2151.601562 1550.660156 L 2253.851562 1438.46875 L 2255.988281 1440.410156 L 2247.71875 1449.480469 L 2153.738281 1552.609375 "/>
<path fill-rule="nonzero" fill="rgb(63.084412%, 61.914062%, 59.179688%)" fill-opacity="1" d="M 2249.421875 1639.378906 L 2247.410156 1637.539062 L 2294.710938 1585.640625 L 2296.730469 1587.480469 L 2249.421875 1639.378906 "/>
<path fill-rule="nonzero" fill="rgb(63.084412%, 61.914062%, 59.179688%)" fill-opacity="1" d="M 2146.789062 1475.109375 L 2144.820312 1473.230469 L 2177.929688 1438.5 L 2179.898438 1440.378906 L 2146.789062 1475.109375 "/>
<path fill-rule="nonzero" fill="rgb(63.084412%, 61.914062%, 59.179688%)" fill-opacity="1" d="M 2288.578125 1639.378906 L 2145.441406 1482.320312 L 2147.460938 1480.488281 L 2290.589844 1637.539062 L 2288.578125 1639.378906 "/>
<path fill-rule="nonzero" fill="rgb(63.084412%, 61.914062%, 59.179688%)" fill-opacity="1" d="M 2293.859375 1597.101562 L 2151.441406 1440.828125 L 2153.449219 1438.988281 L 2295.871094 1595.261719 L 2293.859375 1597.101562 "/>
<path fill-rule="nonzero" fill="rgb(63.084412%, 61.914062%, 59.179688%)" fill-opacity="1" d="M 2244.171875 1639.378906 L 2150.21875 1536.300781 L 2152.238281 1534.46875 L 2246.179688 1637.539062 L 2244.171875 1639.378906 "/>
<path fill-rule="nonzero" fill="rgb(63.084412%, 61.914062%, 59.179688%)" fill-opacity="1" d="M 2301.679688 1508.980469 L 2237.570312 1440.851562 L 2239.558594 1438.980469 L 2303.660156 1507.109375 L 2301.679688 1508.980469 "/>
<path fill-rule="nonzero" fill="rgb(63.084412%, 61.914062%, 59.179688%)" fill-opacity="1" d="M 2297.660156 1553.5 L 2194.601562 1440.410156 L 2196.738281 1438.46875 L 2205 1447.539062 L 2299.800781 1551.558594 L 2297.660156 1553.5 "/>
<path fill-rule="nonzero" fill="rgb(63.084412%, 61.914062%, 59.179688%)" fill-opacity="1" d="M 2201.171875 1639.378906 L 2154.851562 1588.558594 L 2156.859375 1586.730469 L 2203.179688 1637.539062 L 2201.171875 1639.378906 "/>
<path fill-rule="nonzero" fill="rgb(63.084412%, 61.914062%, 59.179688%)" fill-opacity="1" d="M 2304.609375 1475.96875 L 2270.679688 1440.378906 L 2272.660156 1438.511719 L 2273.101562 1438.96875 L 2306.578125 1474.089844 L 2304.609375 1475.96875 "/>
<path fill-rule="evenodd" fill="rgb(57.617188%, 72.068787%, 17.259216%)" fill-opacity="1" d="M 704.628906 1222.019531 C 704.628906 1222.019531 683.265625 1153.558594 703.734375 1129.371094 C 724.203125 1105.179688 726.535156 1110.769531 734.910156 1080.058594 C 743.289062 1049.351562 746.542969 1026.078125 771.203125 1007.011719 C 795.863281 987.929688 811.222656 977.230469 811.222656 977.230469 C 811.222656 977.230469 817.730469 1037.71875 793.070312 1068.890625 C 768.414062 1100.058594 770.730469 1094.011719 773.0625 1126.578125 C 775.386719 1159.148438 741.636719 1206.398438 704.628906 1222.019531 "/>
<path fill-rule="evenodd" fill="rgb(57.617188%, 72.068787%, 17.259216%)" fill-opacity="1" d="M 660.5 1129.828125 C 651.636719 1038.160156 658.859375 921.609375 638.535156 852.871094 C 638.535156 852.871094 679.484375 873.339844 678.550781 916.140625 C 677.617188 958.941406 685.996094 957.078125 690.648438 972.898438 C 699.914062 1017.75 669.246094 1056.980469 660.5 1129.828125 "/>
<path fill-rule="evenodd" fill="rgb(57.617188%, 72.068787%, 17.259216%)" fill-opacity="1" d="M 632.265625 1219.199219 C 632.265625 1219.199219 583.941406 1204.660156 576.425781 1168.960938 C 568.90625 1133.261719 572.269531 1138.519531 560.667969 1117.289062 C 549.066406 1096.058594 550.277344 1080.960938 547.101562 1059.769531 C 542.660156 1030.171875 522.027344 1033.921875 530.160156 979.21875 C 581.363281 1003.5 560.398438 1012.808594 576.039062 1028.171875 C 615.355469 1066.78125 602.839844 1093.980469 627.347656 1119.589844 C 649.59375 1142.839844 654.046875 1161.058594 632.265625 1219.199219 "/>
<path fill-rule="evenodd" fill="rgb(11.767578%, 11.767578%, 11.767578%)" fill-opacity="1" d="M 664.6875 1114.789062 L 673.597656 1379.300781 L 661.242188 1374.710938 L 659.546875 1063.269531 L 664.6875 1114.789062 "/>
<path fill-rule="evenodd" fill="rgb(11.767578%, 11.767578%, 11.767578%)" fill-opacity="1" d="M 660.609375 1402.511719 L 653.21875 1402.96875 C 635.289062 1122.621094 549.488281 1014.171875 549.246094 1013.859375 C 644.167969 1137.011719 659.066406 1378.378906 660.609375 1402.511719 "/>
<path fill-rule="evenodd" fill="rgb(11.767578%, 11.767578%, 11.767578%)" fill-opacity="1" d="M 784.359375 1028.519531 C 760.246094 1066.589844 691.90625 1200.730469 678.234375 1402.75 L 670.839844 1402.261719 C 673.367188 1364.949219 686.28125 1184.738281 784.359375 1028.519531 "/>
<g clip-path="url(#clip-0)">
<g clip-path="url(#clip-1)">
<path fill-rule="nonzero" fill="url(#linear-pattern-0)" d="M 544.683594 1349.871094 L 544.683594 1648.710938 L 783.410156 1648.710938 L 783.410156 1349.871094 Z M 544.683594 1349.871094 "/>
</g>
</g>
<path fill-rule="evenodd" fill="rgb(11.767578%, 11.767578%, 11.767578%)" fill-opacity="1" d="M 646.386719 1349.871094 L 637.105469 1323 L 654.78125 1349.871094 Z M 646.386719 1349.871094 "/>
<path fill-rule="evenodd" fill="rgb(11.767578%, 11.767578%, 11.767578%)" fill-opacity="1" d="M 688.726562 1349.871094 L 693.820312 1315.980469 L 675.882812 1349.871094 Z M 688.726562 1349.871094 "/>
</svg>
